<svg xmlns="http://www.w3.org/2000/svg" xmlns:xlink="http://www.w3.org/1999/xlink" width="137" height="137" viewBox="0 0 137 137">
  <defs>
    <clipPath id="clip-path">
      <path id="Pfad_174" data-name="Pfad 174" d="M0-9.02H94.21V-53.76H0Z" transform="translate(0 53.76)" fill="#fff" stroke="#fff" stroke-width="0.5"/>
    </clipPath>
  </defs>
  <g id="Gruppe_314" data-name="Gruppe 314" transform="translate(-436 -3027)">
    <circle id="Ellipse_1" data-name="Ellipse 1" cx="68.5" cy="68.5" r="68.5" transform="translate(436 3027)" fill="#7fd5e3"/>
    <g id="Gruppe_302" data-name="Gruppe 302" transform="translate(456.497 3073.27)" clip-path="url(#clip-path)">
      <g id="Gruppe_301" data-name="Gruppe 301" transform="translate(0 0)">
        <path id="Pfad_173" data-name="Pfad 173" d="M-8.22-5.658-19.555-.215c-6.192,2.946-6.292,11.235,1.6,11.235H17.5c7.889,0,7.79-8.289,1.6-11.235L7.709-5.658a9.9,9.9,0,0,0,3.945-7.09L12.7-21.636C13.6-29.576,6.76-33.72-.231-33.72c-7.041,0-13.831,4.144-12.933,12.084l1,8.888A10.068,10.068,0,0,0-8.22-5.658m-10.336,7.59L-6.023-4.11c1.4-.649,1.448-1.9.15-2.8A7.919,7.919,0,0,1-9.768-13l-1.049-8.938c-.7-6.391,5.043-9.387,10.586-9.387s11.285,3,10.536,9.387L9.307-13A8.045,8.045,0,0,1,5.512-6.956c-1.148.749-1.5,2.147-.1,2.8L18.095,1.932c3.7,1.748,4.844,6.741-.6,6.741H-17.957c-5.443,0-4.344-4.993-.6-6.741M-44.421,3.181c-6.242,0-5.592-6.891-1.049-8.539l5.892-2.147a13.154,13.154,0,0,1-5.393-1.7,1.836,1.836,0,0,1-.5-2.746c5.193-6.641,3.895-16.478,13.482-16.478,9.537,0,8.289,9.837,13.432,16.478A1.793,1.793,0,0,1-19.005-9.2a15.039,15.039,0,0,1-5.043,1.748c1.848.749,3.645,1.4,5.493,2.147.5.2.549.4.4.849l-.449,1c-.15.449-.4.549-.849.35-2.646-1.1-4.943-2.147-7.59-3.3a1.5,1.5,0,0,1,.5-2.8,13.061,13.061,0,0,0,5.792-1.748c-4.844-6.641-3.995-15.08-11.235-15.08s-6.391,8.439-11.235,15.08A13.061,13.061,0,0,0-37.431-9.2a1.481,1.481,0,0,1,.449,2.8l-7.64,3.246c-2.1.9-3.3,3.995.2,3.995h18.076c.5,0,.649.15.649.649V2.531c0,.5-.15.649-.649.649ZM22.289-8.8a7.113,7.113,0,0,1-2.447-4.744l-.7-6.142c-.649-5.692,4.244-8.738,9.288-8.738s9.937,3.046,9.288,8.738l-.7,6.142a7.314,7.314,0,0,1-2.4,4.744l7.29,3.5c4.644,2.247,4.544,8.489-1.248,8.489H25.884c-.5,0-.649-.2-.649-.649v-1.1c0-.5.15-.649.649-.649h14.78c3.346,0,2.4-2.9.25-3.945L32.276-7.255c-1.3-.649-1.248-1.848-.1-2.646A5.21,5.21,0,0,0,34.623-13.8l.749-6.192c.449-4.144-3.346-6.042-6.941-6.042s-7.39,1.9-6.891,6.042l.7,6.192A5.21,5.21,0,0,0,24.686-9.9a1.426,1.426,0,0,1-.15,2.646l-6.341,3.1c-.449.25-.649.15-.9-.3l-.449-.949c-.25-.449-.15-.649.3-.849Z" transform="translate(48.992 33.72)" fill="#fff" stroke="#fff" stroke-width="0.5"/>
      </g>
    </g>
  </g>
</svg>
