<svg xmlns="http://www.w3.org/2000/svg" xmlns:xlink="http://www.w3.org/1999/xlink" width="137" height="137" viewBox="0 0 137 137">
  <defs>
    <clipPath id="clip-path">
      <path id="Pfad_170" data-name="Pfad 170" d="M0,15.638H69.415v-68.8H0Z" transform="translate(0 53.163)" fill="#fff"/>
    </clipPath>
  </defs>
  <g id="Gruppe_317" data-name="Gruppe 317" transform="translate(-1348 -3443)">
    <circle id="Ellipse_4" data-name="Ellipse 4" cx="68.5" cy="68.5" r="68.5" transform="translate(1348 3443)" fill="#7fd5e3"/>
    <g id="Gruppe_316" data-name="Gruppe 316" transform="translate(1381.111 3533.507)">
      <g id="Gruppe_296" data-name="Gruppe 296" transform="translate(0 -53.163)" clip-path="url(#clip-path)">
        <g id="Gruppe_295" data-name="Gruppe 295" transform="translate(0 -0.001)">
          <path id="Pfad_169" data-name="Pfad 169" d="M11.787,1.675,12.8,7.964l5.591,3.028a3.343,3.343,0,0,1,1.475,4.426l-2.873,5.668,2.8,5.746a3.39,3.39,0,0,1-1.475,4.426l-1.631.854L28.559,45.78a3.456,3.456,0,0,1-2.718,5.668l-8.774-.233-2.8,9.473a3.433,3.433,0,0,1-6.212.777l-9.4-16.539-1.786,1.708a3.5,3.5,0,0,1-4.814,0l-1.475-1.553-9.4,16.384a3.438,3.438,0,0,1-6.212-.777l-2.718-9.473-8.852.233a3.412,3.412,0,0,1-2.64-5.668l11.958-13.822-1.864-1.009a3.343,3.343,0,0,1-1.475-4.426l2.873-5.668-2.8-5.746a3.39,3.39,0,0,1,1.475-4.426l5.668-2.951,1.165-6.29a3.323,3.323,0,0,1,3.8-2.718l6.29.932L-7.548-4.77a3.3,3.3,0,0,1,4.659.078L1.692-.267l6.29-.854a3.44,3.44,0,0,1,3.8,2.8M9.146,8.741,8.137,2.606,2,3.46a3.356,3.356,0,0,1-2.8-.932L-5.219-1.9l-4.5,4.348a3.439,3.439,0,0,1-2.8.932l-6.134-.932-1.087,6.057a3.389,3.389,0,0,1-1.786,2.407l-5.513,2.873,2.718,5.591a3.289,3.289,0,0,1,0,2.951l-2.8,5.591,5.435,2.873A3.727,3.727,0,0,1-19.895,33.2l1.009,6.134,6.134-.854a3.439,3.439,0,0,1,2.8.932l4.426,4.426,4.5-4.348a3.356,3.356,0,0,1,2.8-.932L7.9,39.49l1.087-6.057a3.389,3.389,0,0,1,1.786-2.407l5.513-2.873-2.718-5.591a3.289,3.289,0,0,1,0-2.951l2.8-5.591-5.435-2.873A3.49,3.49,0,0,1,9.146,8.741M-21.68,58.98l9.551-16.85-6.6.932a3.44,3.44,0,0,1-3.8-2.8l-1.009-6.29-.388-.233L-36.046,47.721l11.026-.233ZM25.375,47.721,13.34,33.9l-.7.311L11.476,40.5a3.323,3.323,0,0,1-3.8,2.718L1.3,42.052,10.932,58.98l3.417-11.492Z" transform="translate(40.068 5.693)" fill="#fff"/>
        </g>
      </g>
    </g>
  </g>
</svg>
