<svg xmlns="http://www.w3.org/2000/svg" width="137" height="137" viewBox="0 0 137 137">
  <g id="Gruppe_315" data-name="Gruppe 315" transform="translate(-745 -3027)">
    <circle id="Ellipse_4" data-name="Ellipse 4" cx="68.5" cy="68.5" r="68.5" transform="translate(745 3027)" fill="#7fd5e3"/>
    <path id="Icon_metro-stethoscope" data-name="Icon metro-stethoscope" d="M53.121,25.67a2.4,2.4,0,1,0-.7,1.661,2.27,2.27,0,0,0,.7-1.661Zm4.725,0a6.81,6.81,0,0,1-1.311,4.1,7.2,7.2,0,0,1-3.415,2.584V46.933a12.75,12.75,0,0,1-4.854,10.022,17.371,17.371,0,0,1-11.684,4.153A17.371,17.371,0,0,1,24.9,56.955a12.75,12.75,0,0,1-4.854-10.022V42.06A16.923,16.923,0,0,1,9.93,37.335a12.639,12.639,0,0,1-4.061-9.3V9.132A2.4,2.4,0,0,1,8.232,6.77a3.175,3.175,0,0,1,.591.074,4.792,4.792,0,0,1,1.735-1.772,4.7,4.7,0,0,1,5.74.72,4.553,4.553,0,0,1,1.384,3.341A4.552,4.552,0,0,1,16.3,12.473a4.553,4.553,0,0,1-3.341,1.384,4.645,4.645,0,0,1-2.362-.664v14.84a8.3,8.3,0,0,0,3.47,6.682,12.961,12.961,0,0,0,8.343,2.769,12.962,12.962,0,0,0,8.343-2.769,8.3,8.3,0,0,0,3.47-6.682V13.193a4.646,4.646,0,0,1-2.362.664,4.552,4.552,0,0,1-3.341-1.384,4.553,4.553,0,0,1-1.384-3.341,4.552,4.552,0,0,1,1.384-3.341,4.7,4.7,0,0,1,5.74-.72,4.792,4.792,0,0,1,1.735,1.772,3.176,3.176,0,0,1,.591-.074,2.4,2.4,0,0,1,2.363,2.363v18.9a12.639,12.639,0,0,1-4.061,9.3A16.924,16.924,0,0,1,24.77,42.06v4.873a8.3,8.3,0,0,0,3.47,6.682,12.961,12.961,0,0,0,8.343,2.769,12.962,12.962,0,0,0,8.343-2.769,8.3,8.3,0,0,0,3.47-6.682V32.352a7.2,7.2,0,0,1-3.415-2.584,7.1,7.1,0,0,1,.757-9.118,7.088,7.088,0,0,1,12.108,5.02Z" transform="translate(781.154 3064.373)" fill="#fff"/>
  </g>
</svg>
